<svg preserveAspectRatio="none" overflow="visible" style="display: block;" width="30.1494" height="30.1608" viewBox="0 0 30.1494 30.1608" fill="none" xmlns="http://www.w3.org/2000/svg">
<g id="Logo icon">
<path id="Vector" d="M8.31405 19.7463C5.06862 19.7463 0 20.2123 0 15.5314C0 13.1504 1.73191 11.0852 4.21488 11.0852C12.3141 11.0852 18.876 17.6471 18.876 25.7463V25.8124C18.876 28.143 16.9917 30.0273 14.6612 30.0273C10.0515 30.0273 10.4463 25.112 10.4463 21.8951C10.4463 20.705 9.4876 19.7463 8.31405 19.7463Z" fill="#8E8E8E"/>
<path id="Vector_2" d="M19.7357 8.32484C19.7357 5.07942 20.2017 0.0107958 15.5208 0.0107958C15.117 0.0107958 11.0745 -0.42404 11.0745 4.22567C11.0745 12.3248 17.6365 18.8868 25.7357 18.8868C28.0591 18.8868 30.0167 17.0232 30.0167 14.672C30.0167 10.0623 25.1014 10.4571 21.8844 10.4571C20.6943 10.4571 19.7357 9.4984 19.7357 8.32484Z" fill="#8E8E8E"/>
</g>
</svg>
